<?xml version="1.0" encoding="utf-8"?>
<!-- Generator: Adobe Illustrator 23.0.3, SVG Export Plug-In . SVG Version: 6.00 Build 0)  -->
<svg version="1.1" id="Layer_1" xmlns="http://www.w3.org/2000/svg" xmlns:xlink="http://www.w3.org/1999/xlink" x="0px" y="0px"
	 viewBox="0 0 2000 2000" style="enable-background:new 0 0 2000 2000;" xml:space="preserve">
<style type="text/css">
	.st0{fill:#E52525;}
	.st1{fill:#D32E2E;}
	.st2{fill:#FFFFFF;}
</style>
<g>
	<g>
		<path class="st1" d="M1206.19,394.04c-78.4,0-154.5,0-230.05,0l117.6,240.79c2.55-10.78,6.98-21.85,13.44-33.7
			C1143.07,535.23,1172.37,465.72,1206.19,394.04z"/>
		<path class="st1" d="M1740.69,512.37c20.21-41.28,40.51-82.77,61.09-124.81c-43.52,0-83.75-0.11-122.11-0.14L1740.69,512.37z"/>
		<path class="st1" d="M1648.16,387.42c-40.03,0.03-78.37,0.22-116.68,0.81c-12.59,0.19-31.78,5.85-36.49,14.92
			c-42.07,81-82.09,163.08-121.07,245.63c-4.11,8.7-0.43,23.73,4.33,33.54c42.74,88.19,86.53,175.87,140.16,284.19
			c71.98-147.06,138.87-283.72,206.51-421.92L1648.16,387.42z"/>
		<path class="st1" d="M944.63,394.04c-98.76,0-196.99,0-298.58,0c192.18,391.29,379.35,772.36,576.1,1172.95
			c48.3-96.14,83.95-172.17,124.33-245.59c13.32-24.21,17.87-46.44,16.36-69.01L944.63,394.04z"/>
		<path class="st1" d="M287.8,388.14c-73.22-2.02-148.26-0.42-234.1-0.42C247.73,783.1,435.7,1166.12,632.71,1567.58
			c44.28-90.4,82.89-166.76,118.07-241.75L287.8,388.14z"/>
		<path class="st1" d="M766.07,1292.84c2.25-4.93,4.5-9.86,6.73-14.8c6.92-15.35-0.4-41.41-8.84-58.78
			c-128.08-263.7-256.98-527-387.54-789.48c-8.83-17.76-31.83-39.35-49.15-40.18c-2.44-0.12-4.89-0.21-7.34-0.32L766.07,1292.84z"/>
	</g>
	<path class="st2" d="M1917.1,542.74l-42.85-44.9c1.79,0.24,3.55,0.35,5.28,0.35c1.73,0,3.43-0.1,5.09-0.3l61.68-8.18l-64.03-67.08
		l-5.41,11.21l42.72,44.76c-2.22-0.13-4.25-0.16-6.1-0.1c-1.84,0.06-3.61,0.18-5.3,0.35l-60.54,7.92l64.07,67.12L1917.1,542.74z
		 M1900.27,577.63l-81.47-31.05l46.64,103.25l6.15-12.74l-11.69-25.29l14.26-29.56l19.95,8.17L1900.27,577.63z M1843.34,576.22
		c-0.75-1.5-1.6-3.1-2.54-4.77c-0.94-1.68-1.99-3.43-3.14-5.25c1.66,1.02,3.19,1.91,4.58,2.65c1.4,0.75,2.65,1.37,3.76,1.87
		l17.75,7.09l-10.03,20.79L1843.34,576.22z M1827.21,729.06l-42.85-44.9c1.79,0.24,3.55,0.35,5.28,0.35c1.73,0,3.43-0.1,5.09-0.3
		l61.68-8.18l-64.03-67.08l-5.41,11.21l42.72,44.76c-2.22-0.13-4.25-0.16-6.1-0.1c-1.85,0.06-3.61,0.18-5.3,0.35l-60.54,7.92
		l64.07,67.12L1827.21,729.06z M1805.37,774.35l-61.63-64.57l-5.85,12.13l61.63,64.57L1805.37,774.35z M1730.47,856.96
		c8.36,8.76,15.82,12.77,22.39,12.03c6.57-0.74,12.33-6.24,17.28-16.5c4.95-10.26,6.58-20.11,4.9-29.54
		c-1.68-9.43-6.69-18.52-15.02-27.25l-38.35-40.18l-5.85,12.13l37.42,39.21c5.56,5.82,8.98,11.75,10.27,17.78
		c1.29,6.04,0.45,12.13-2.51,18.28c-2.98,6.18-6.62,9.37-10.91,9.55c-4.29,0.18-9.21-2.64-14.77-8.46l-37.42-39.21l-5.78,11.98
		L1730.47,856.96z M1719.12,895.01c-2.9-5.93-6.49-11.13-10.75-15.6c-4.38-4.59-9-7.92-13.87-10c-4.87-2.08-9.74-2.84-14.62-2.27
		c-4.83,0.56-9.22,2.41-13.16,5.54c-3.94,3.14-7.21,7.4-9.82,12.8c-2.62,5.44-4.29,11.42-5.02,17.95
		c-0.72,6.53-0.47,13.25,0.76,20.17c1.21,6.95,3.29,13.46,6.23,19.53c2.94,6.07,6.62,11.42,11.02,16.03
		c4.41,4.62,9.04,7.97,13.9,10.07c4.86,2.1,9.72,2.85,14.57,2.26c4.7-0.55,9.05-2.38,13.05-5.51c4-3.12,7.22-7.22,9.66-12.28
		c1.8-3.74,3.17-7.7,4.09-11.9c0.93-4.19,1.45-8.74,1.57-13.63l13.41-0.6l6.98-14.47l-21.79,1.03
		C1724.09,907.32,1722.02,900.94,1719.12,895.01z M1697.23,929.66l18.31-0.91c-0.1,2.76-0.43,5.29-0.98,7.61
		c-0.55,2.32-1.33,4.53-2.34,6.64c-3.77,7.81-9.14,12.05-16.11,12.7c-6.97,0.65-13.68-2.4-20.13-9.17
		c-3.14-3.29-5.78-7.07-7.9-11.34s-3.64-8.83-4.56-13.67c-0.94-4.88-1.2-9.59-0.77-14.16c0.43-4.56,1.52-8.66,3.27-12.3
		c1.74-3.6,4-6.45,6.78-8.54c2.79-2.09,5.9-3.3,9.35-3.62c3.41-0.32,6.82,0.31,10.25,1.88c3.43,1.57,6.71,4,9.85,7.29
		c2.86,3,5.27,6.31,7.22,9.94c1.95,3.63,3.51,7.77,4.68,12.43l-9.82,0.52L1697.23,929.66z M1687.47,1018.75l-8.97-9.39l-14.23,29.51
		l-19.91-20.86l14.23-29.51l-8.8-9.22l-14.23,29.5l-15.45-16.18l14.23-29.51l-8.5-8.91l-20.08,41.63l61.63,64.57L1687.47,1018.75z
		 M1601.02,1197.94l-42.85-44.9c1.79,0.24,3.55,0.35,5.28,0.35c1.73,0,3.43-0.1,5.09-0.3l61.68-8.18l-64.03-67.08l-5.41,11.21
		l42.72,44.76c-2.22-0.13-4.25-0.16-6.1-0.1c-1.85,0.06-3.61,0.18-5.3,0.35l-60.54,7.92l64.07,67.12L1601.02,1197.94z
		 M1580.87,1239.71l-8.97-9.4l-14.23,29.51l-19.91-20.86l14.23-29.51l-8.8-9.22l-14.23,29.51l-15.45-16.19l14.23-29.51l-8.5-8.91
		l-20.08,41.63l61.63,64.57L1580.87,1239.71z M1503.11,1314.86l39.54,4.07l6.61-13.71l-40.43-3.69c2.16-6.23,2.54-12.25,1.14-18.06
		c-1.4-5.81-4.57-11.31-9.51-16.48c-2.81-2.94-5.69-5.02-8.66-6.23c-2.96-1.21-5.74-1.44-8.35-0.69c-2.17,0.64-4.18,2.05-6.03,4.23
		c-1.85,2.18-3.98,5.74-6.37,10.7l-8.16,16.92l61.63,64.57l5.48-11.36l-27.57-28.89L1503.11,1314.86z M1477.35,1288.79l1.06-2.19
		c2.95-6.12,5.66-9.58,8.14-10.38c2.48-0.8,5.42,0.57,8.81,4.13c3.14,3.29,4.82,6.64,5.04,10.04c0.22,3.4-1.22,8.31-4.32,14.73
		l-1.06,2.19L1477.35,1288.79z M1466.86,1390.01l39.54,4.07l6.61-13.71l-40.43-3.69c2.16-6.23,2.54-12.25,1.14-18.06
		c-1.4-5.81-4.57-11.31-9.51-16.48c-2.81-2.94-5.69-5.02-8.66-6.23c-2.96-1.21-5.75-1.44-8.35-0.69c-2.17,0.64-4.18,2.05-6.03,4.23
		c-1.85,2.18-3.98,5.74-6.37,10.7l-8.16,16.92l61.63,64.57l5.48-11.36l-27.57-28.89L1466.86,1390.01z M1441.1,1363.94l1.06-2.19
		c2.95-6.12,5.66-9.58,8.14-10.38c2.48-0.8,5.42,0.57,8.81,4.13c3.14,3.29,4.82,6.64,5.04,10.04c0.22,3.4-1.22,8.31-4.32,14.73
		l-1.06,2.19L1441.1,1363.94z M1476.83,1455.36l-81.47-31.04l46.64,103.25l6.15-12.74l-11.69-25.29l14.26-29.55l19.95,8.17
		L1476.83,1455.36z M1419.91,1453.95c-0.75-1.5-1.6-3.1-2.54-4.77c-0.94-1.68-1.99-3.43-3.14-5.25c1.66,1.02,3.19,1.91,4.58,2.65
		c1.4,0.74,2.65,1.37,3.76,1.87l17.75,7.09l-10.03,20.79L1419.91,1453.95z M1404.46,1612.88l-26.92-53.36
		c-1.03-1.99-2.12-4.03-3.29-6.13c-1.17-2.09-2.44-4.29-3.81-6.61c1.52,0.88,3.15,1.77,4.89,2.67c1.74,0.9,3.57,1.8,5.51,2.7
		l43.36,19.81l-50.09-95.98l-5.83,12.08l24.6,46.87c1.63,3.09,3.07,5.72,4.31,7.89c1.24,2.17,2.4,4.08,3.5,5.74
		c-1.94-1.16-3.88-2.26-5.82-3.3c-1.95-1.04-3.91-2.04-5.9-3l-41.17-19.35l25.69,49.47c0.11,0.22,0.32,0.62,0.63,1.2
		c2.49,4.55,5.08,9.13,7.76,13.73c-1.58-0.94-3.29-1.9-5.13-2.89c-1.85-0.99-4.01-2.1-6.51-3.33l-37.92-18.48l-5.78,11.98
		L1404.46,1612.88z"/>
</g>
</svg>
